HIERARCHY
ROOT Hips
{
	OFFSET	0.00	0.00	0.00
	CHANNELS 6 Xposition Yposition Zposition Zrotation Xrotation Yrotation
	JOINT LeftUpLeg
	{
		OFFSET	 0.126116	-0.014019	-0.065224
		CHANNELS 3 Zrotation Xrotation Yrotation
		JOINT LeftLeg
		{
			OFFSET	 0.000000	 0.000000	 0.569914
			CHANNELS 3 Zrotation Xrotation Yrotation
			JOINT LeftFoot
			{
				OFFSET	 0.000000	 0.000000	 0.544423
				CHANNELS 3 Zrotation Xrotation Yrotation
				JOINT LeftToeBase
				{
					OFFSET	 0.000000	 0.000000	 0.207117
					CHANNELS 3 Zrotation Xrotation Yrotation
					End Site
					{
						OFFSET	 0.000000	 0.000000	 0.207117
					}
				}
			}
		}
	}
	JOINT RightUpLeg
	{
		OFFSET	-0.124023	-0.008373	-0.065224
		CHANNELS 3 Zrotation Xrotation Yrotation
		JOINT RightLeg
		{
			OFFSET	 0.000000	 0.000000	 0.570047
			CHANNELS 3 Zrotation Xrotation Yrotation
			JOINT RightFoot
			{
				OFFSET	 0.000000	 0.000000	 0.544354
				CHANNELS 3 Zrotation Xrotation Yrotation
				JOINT RightToeBase
				{
					OFFSET	 0.000000	 0.000000	 0.207540
					CHANNELS 3 Zrotation Xrotation Yrotation
					End Site
					{
						OFFSET	 0.000000	 0.000000	 0.207540
					}
				}
			}
		}
	}
	JOINT Spine
	{
		OFFSET	 0.000184	-0.007763	 0.117403
		CHANNELS 3 Zrotation Xrotation Yrotation
		JOINT Spine1
		{
			OFFSET	 0.000000	 0.000000	 0.137269
			CHANNELS 3 Zrotation Xrotation Yrotation
			JOINT Spine2
			{
				OFFSET	 0.000000	 0.000000	 0.156879
				CHANNELS 3 Zrotation Xrotation Yrotation
				JOINT LeftShoulder
				{
					OFFSET	 0.080501	-0.002496	 0.160144
					CHANNELS 3 Zrotation Xrotation Yrotation
					JOINT LeftArm
					{
						OFFSET	 0.000000	 0.000000	 0.164363
						CHANNELS 3 Zrotation Xrotation Yrotation
						JOINT LeftForeArm
						{
							OFFSET	 0.000000	 0.000000	 0.364576
							CHANNELS 3 Zrotation Xrotation Yrotation
							JOINT LeftHand
							{
								OFFSET	 0.000000	 0.000000	 0.360812
								CHANNELS 3 Zrotation Xrotation Yrotation
								JOINT LeftHandIndex1
								{
									OFFSET	 0.000000	 0.000000	 0.086006
									CHANNELS 3 Zrotation Xrotation Yrotation
									JOINT LeftHandIndex2
									{
										OFFSET	 0.000000	 0.000000	 0.047236
										CHANNELS 3 Zrotation Xrotation Yrotation
										JOINT LeftHandIndex3
										{
											OFFSET	-0.004284	-0.000551	 0.038166
											CHANNELS 3 Zrotation Xrotation Yrotation
											End Site
											{
												OFFSET	-0.004284	-0.000551	 0.038166
											}
										}
									}
								}
							}
						}
					}
				}
				JOINT Neck
				{
					OFFSET	 0.000000	 0.000000	 0.176489
					CHANNELS 3 Zrotation Xrotation Yrotation
					JOINT Head
					{
						OFFSET	 0.000000	-0.001747	 0.077940
						CHANNELS 3 Zrotation Xrotation Yrotation
						End Site
						{
							OFFSET	 0.000000	-0.001747	 0.077940
						}
					}
				}
				JOINT RightShoulder
				{
					OFFSET	-0.080363	 0.000306	 0.159706
					CHANNELS 3 Zrotation Xrotation Yrotation
					JOINT RightArm
					{
						OFFSET	 0.000000	 0.000000	 0.164196
						CHANNELS 3 Zrotation Xrotation Yrotation
						JOINT RightForeArm
						{
							OFFSET	 0.000000	 0.000000	 0.365611
							CHANNELS 3 Zrotation Xrotation Yrotation
							JOINT RightHand
							{
								OFFSET	 0.000000	 0.000000	 0.360648
								CHANNELS 3 Zrotation Xrotation Yrotation
								JOINT RightHandIndex1
								{
									OFFSET	 0.000000	 0.000000	 0.069977
									CHANNELS 3 Zrotation Xrotation Yrotation
									JOINT RightHandIndex2
									{
										OFFSET	 0.000000	 0.000000	 0.052305
										CHANNELS 3 Zrotation Xrotation Yrotation
										JOINT RightHandIndex3
										{
											OFFSET	 0.009002	-0.000782	 0.042196
											CHANNELS 3 Zrotation Xrotation Yrotation
											End Site
											{
												OFFSET	 0.009002	-0.000782	 0.042196
											}
										}
									}
								}
							}
						}
					}
				}
			}
		}
	}
}
MOTION
Frames:    4
Frame Time: 0.03333334
-0.057011	-2.254079	 1.154854	 4.457236	-1.630800	-3.499687	 15.612830	-15.974970	-173.809200	 0.643633	-51.339100	 0.194689	 111.196800	 82.245140	-115.413500	-2.370733	 31.390400	-0.064846	-18.155650	-35.545730	-174.918900	 13.651430	-61.595980	 12.734900	 12.284050	 77.752230	-6.529362	 2.358221	 33.111170	 0.105802	-4.142053	 8.859630	 1.154899	 0.953615	 3.032182	 2.333164	-6.466505	-2.778036	-3.016366	-93.832540	 58.916500	 175.619700	 13.610090	 32.003680	-39.343650	-18.383790	 1.759237	-5.668929	-1.002087	-2.530291	-6.530428	-4.869313	 19.243280	-2.786474	-3.888214	 21.387170	 2.209548	-4.808250	 5.545593	 0.146964	-0.107064	-5.037933	 0.168244	-8.503630	 1.966758	 2.325881	 89.812170	 61.607240	-179.928400	-19.116360	 49.716290	 11.795850	 15.799630	 2.397046	 11.535220	-2.764315	 11.567800	 0.266177	 6.300279	 25.556190	-0.563002	 1.790493	 45.457190	-6.908248	 0.420828	 24.736820	 3.622060
-0.057998	-2.277537	 1.154297	 5.060077	-1.337842	-3.487932	 14.769950	-15.028760	-174.211600	 1.096656	-50.993310	 0.578103	 116.527500	 82.242910	-120.959100	-2.369669	 31.570390	-0.068910	-19.757830	-37.387210	-175.839100	 13.442100	-59.191150	 12.261450	 13.299370	 80.199960	-7.895858	 2.358830	 33.021300	 0.103711	-4.193873	 8.715035	 1.086114	 0.891985	 2.975765	 2.352573	-6.559416	-2.852983	-3.002943	-93.944040	 59.005520	 175.371100	 12.998100	 30.613860	-39.906820	-18.912450	 1.750983	-5.648113	-0.672928	-2.616626	-7.513897	-4.869038	 19.248830	-2.786525	-3.883752	 21.444350	 2.205013	-4.808265	 5.545358	 0.146975	-0.073712	-5.077725	 0.185266	-8.477945	 1.938200	 2.185292	 89.777200	 61.651800	 179.988200	-18.979210	 50.388090	 10.426920	 15.531960	 2.413165	 12.033440	-2.750794	 11.951990	 0.115849	 6.293255	 24.792820	-0.538484	 1.896517	 44.611440	-7.002932	 0.547434	 24.183290	 3.557559
-0.058768	-2.296935	 1.153329	 5.489032	-0.975892	-3.506668	 14.197290	-14.369080	-174.473500	 1.323443	-50.741600	 0.751664	 120.963900	 82.222620	-125.452100	-2.368925	 31.693180	-0.071694	-21.176670	-38.963580	-176.742200	 13.468030	-56.960190	 11.998240	 12.969080	 81.871140	-7.936015	 2.358971	 33.000960	 0.103241	-4.115712	 8.476948	 1.014139	 0.842715	 2.959195	 2.429276	-6.639853	-2.934026	-3.028459	-94.047090	 59.017820	 175.149400	 12.372630	 29.456130	-40.296420	-19.058220	 1.740852	-5.631167	-0.317313	-2.783041	-7.944600	-4.866164	 19.326810	-2.792535	-3.878103	 21.516660	 2.199267	-4.806076	 5.571202	 0.145469	-0.051414	-5.095881	 0.213480	-8.478591	 1.919829	 2.112437	 89.738750	 61.698460	 179.896500	-18.844720	 50.934930	 9.205687	 15.153060	 2.425771	 12.669840	-2.851090	 12.248010	-0.044404	 6.283350	 24.051440	-0.544608	 1.984757	 43.885620	-7.081384	 0.697978	 23.517880	 3.482169
-0.059861	-2.322711	 1.151396	 6.032552	-0.479718	-3.543498	 13.460040	-13.529640	-174.811600	 1.578398	-50.447400	 0.945107	 127.041300	 82.139600	-131.568900	-2.367991	 31.847050	-0.075191	-23.082040	-40.864230	-178.075300	 13.368470	-53.779530	 11.477130	 15.923340	 84.352290	-11.581430	 2.359061	 32.986560	 0.102912	-3.967652	 8.141698	 0.915320	 0.783024	 2.949541	 2.547394	-6.745547	-3.045571	-3.072578	-94.183620	 59.020360	 174.857800	 11.511820	 27.957420	-40.778480	-19.152610	 1.725319	-5.605846	 0.134433	-3.011940	-8.420933	-4.861820	 19.444540	-2.801678	-3.870291	 21.616250	 2.191338	-4.802738	 5.610585	 0.143157	-0.023596	-5.116165	 0.253306	-8.484283	 1.897170	 2.027220	 89.686810	 61.761370	 179.771900	-18.633490	 51.626940	 7.546413	 14.614320	 2.435009	 13.635300	-3.003542	 12.628360	-0.262100	 6.269373	 23.063020	-0.558552	 2.096538	 42.935910	-7.180290	 0.901433	 22.606160	 3.382594
